# MagicaVoxel @ Ephtracy

# group
g C_1

# material
mtllib C_1.mtl
usemtl palette

# normals
vn -1 0 0
vn 1 0 0
vn 0 0 1
vn 0 0 -1
vn 0 -1 0
vn 0 1 0

# texcoords
vt 0.857422 0.5
vt 0.958984 0.5

# verts
v -2.5 0 2.5
v -2.5 0 1.5
v -2.5 0 -0.5
v -2.5 0 -2.5
v -2.5 2 2.5
v -2.5 2 1.5
v -2.5 2 -0.5
v -2.5 2 -2.5
v 0.5 2 2.5
v 0.5 2 1.5
v 0.5 2 -0.5
v 0.5 2 -2.5
v 0.5 5 2.5
v 0.5 5 1.5
v 0.5 5 -0.5
v 0.5 5 -2.5
v 2.5 0 2.5
v 2.5 0 -2.5
v 2.5 1 1.5
v 2.5 1 0.5
v 2.5 3 0.5
v 2.5 3 -0.5
v 2.5 5 2.5
v 2.5 5 1.5
v 2.5 5 -0.5
v 2.5 5 -2.5
v -2.5 0 2.5
v -2.5 2 2.5
v 0.5 2 2.5
v 0.5 5 2.5
v 2.5 0 2.5
v 2.5 5 2.5
v -2.5 0 -2.5
v -2.5 2 -2.5
v 0.5 2 -2.5
v 0.5 5 -2.5
v 2.5 0 -2.5
v 2.5 5 -2.5
v -2.5 0 2.5
v 2.5 0 2.5
v -2.5 0 1.5
v -1.5 0 1.5
v -2.5 0 -0.5
v -1.5 0 -0.5
v -2.5 0 -2.5
v 2.5 0 -2.5
v -2.5 2 2.5
v 0.5 2 2.5
v -2.5 2 1.5
v 0.5 2 1.5
v -2.5 2 -0.5
v 0.5 2 -0.5
v -2.5 2 -2.5
v 0.5 2 -2.5
v 0.5 5 2.5
v 2.5 5 2.5
v 0.5 5 1.5
v 2.5 5 1.5
v 0.5 5 -0.5
v 2.5 5 -0.5
v 0.5 5 -2.5
v 2.5 5 -2.5

# faces
f 5/1/1 2/1/1 1/1/1
f 6/2/1 3/2/1 2/2/1
f 6/1/1 2/1/1 5/1/1
f 7/1/1 4/1/1 3/1/1
f 7/2/1 3/2/1 6/2/1
f 8/1/1 4/1/1 7/1/1
f 13/1/1 10/1/1 9/1/1
f 14/2/1 11/2/1 10/2/1
f 14/1/1 10/1/1 13/1/1
f 15/1/1 12/1/1 11/1/1
f 15/2/1 11/2/1 14/2/1
f 16/1/1 12/1/1 15/1/1
f 17/1/2 18/1/2 19/1/2
f 19/1/2 18/1/2 20/1/2
f 19/2/2 20/2/2 21/2/2
f 20/1/2 18/1/2 21/1/2
f 21/1/2 18/1/2 22/1/2
f 17/1/2 19/1/2 23/1/2
f 19/2/2 21/2/2 24/2/2
f 23/1/2 19/1/2 24/1/2
f 21/2/2 22/2/2 24/2/2
f 22/1/2 18/1/2 25/1/2
f 24/2/2 22/2/2 25/2/2
f 25/1/2 18/1/2 26/1/2
f 29/1/3 28/1/3 27/1/3
f 31/1/3 29/1/3 27/1/3
f 31/1/3 30/1/3 29/1/3
f 32/1/3 30/1/3 31/1/3
f 33/1/4 34/1/4 35/1/4
f 33/1/4 35/1/4 37/1/4
f 35/1/4 36/1/4 37/1/4
f 37/1/4 36/1/4 38/1/4
f 41/1/5 40/1/5 39/1/5
f 42/1/5 40/1/5 41/1/5
f 43/2/5 42/2/5 41/2/5
f 44/1/5 40/1/5 42/1/5
f 44/2/5 42/2/5 43/2/5
f 45/1/5 44/1/5 43/1/5
f 46/1/5 40/1/5 44/1/5
f 46/1/5 44/1/5 45/1/5
f 47/1/6 48/1/6 49/1/6
f 49/1/6 48/1/6 50/1/6
f 49/2/6 50/2/6 51/2/6
f 51/2/6 50/2/6 52/2/6
f 51/1/6 52/1/6 53/1/6
f 53/1/6 52/1/6 54/1/6
f 55/1/6 56/1/6 57/1/6
f 57/1/6 56/1/6 58/1/6
f 57/2/6 58/2/6 59/2/6
f 59/2/6 58/2/6 60/2/6
f 59/1/6 60/1/6 61/1/6
f 61/1/6 60/1/6 62/1/6
