# MagicaVoxel @ Ephtracy

# group
g C_2

# material
mtllib C_2.mtl
usemtl palette

# normals
vn -1 0 0
vn 1 0 0
vn 0 0 1
vn 0 0 -1
vn 0 -1 0
vn 0 1 0

# texcoords
vt 0.857422 0.5
vt 0.958984 0.5

# verts
v -2.5 0 2.5
v -2.5 0 -2.5
v -2.5 2 2.5
v -2.5 2 -2.5
v 0.5 2 2.5
v 0.5 2 -2.5
v 0.5 3 2.5
v 0.5 3 -2.5
v 0.5 5 2.5
v 0.5 5 -2.5
v 2.5 0 2.5
v 2.5 0 -2.5
v 2.5 5 2.5
v 2.5 5 -2.5
v -2.5 0 2.5
v -2.5 2 2.5
v 0.5 2 2.5
v 0.5 3 2.5
v 0.5 5 2.5
v 1.5 3 2.5
v 1.5 5 2.5
v 2.5 0 2.5
v 2.5 5 2.5
v -2.5 0 -2.5
v -2.5 2 -2.5
v 0.5 2 -2.5
v 0.5 3 -2.5
v 0.5 5 -2.5
v 1.5 3 -2.5
v 1.5 5 -2.5
v 2.5 0 -2.5
v 2.5 5 -2.5
v -2.5 0 2.5
v 2.5 0 2.5
v -2.5 0 -2.5
v 2.5 0 -2.5
v -2.5 2 2.5
v 0.5 2 2.5
v -2.5 2 -2.5
v 0.5 2 -2.5
v 0.5 5 2.5
v 1.5 5 2.5
v 2.5 5 2.5
v 0.5 5 -2.5
v 1.5 5 -2.5
v 2.5 5 -2.5

# faces
f 3/1/1 2/1/1 1/1/1
f 4/1/1 2/1/1 3/1/1
f 7/1/1 6/1/1 5/1/1
f 8/1/1 6/1/1 7/1/1
f 9/2/1 8/2/1 7/2/1
f 10/2/1 8/2/1 9/2/1
f 11/1/2 12/1/2 13/1/2
f 13/1/2 12/1/2 14/1/2
f 17/1/3 16/1/3 15/1/3
f 20/1/3 18/1/3 17/1/3
f 20/2/3 19/2/3 18/2/3
f 21/2/3 19/2/3 20/2/3
f 22/1/3 17/1/3 15/1/3
f 22/1/3 20/1/3 17/1/3
f 22/1/3 21/1/3 20/1/3
f 23/1/3 21/1/3 22/1/3
f 24/1/4 25/1/4 26/1/4
f 26/1/4 27/1/4 29/1/4
f 27/2/4 28/2/4 29/2/4
f 29/2/4 28/2/4 30/2/4
f 24/1/4 26/1/4 31/1/4
f 26/1/4 29/1/4 31/1/4
f 29/1/4 30/1/4 31/1/4
f 31/1/4 30/1/4 32/1/4
f 35/1/5 34/1/5 33/1/5
f 36/1/5 34/1/5 35/1/5
f 37/1/6 38/1/6 39/1/6
f 39/1/6 38/1/6 40/1/6
f 41/2/6 42/2/6 44/2/6
f 42/1/6 43/1/6 45/1/6
f 44/2/6 42/2/6 45/2/6
f 45/1/6 43/1/6 46/1/6
