# MagicaVoxel @ Ephtracy

# group
g F3

# material
mtllib F3.mtl
usemtl palette

# normals
vn -1 0 0
vn 1 0 0
vn 0 0 1
vn 0 0 -1
vn 0 -1 0
vn 0 1 0

# texcoords
vt 0.857422 0.5
vt 0.958984 0.5

# verts
v -2.5 0 2.5
v -2.5 0 -2.5
v -2.5 2 2.5
v -2.5 2 -2.5
v 0.5 2 2.5
v 0.5 2 -2.5
v 0.5 3 -0.5
v 0.5 3 -2.5
v 0.5 5 2.5
v 0.5 5 -0.5
v 0.5 5 -2.5
v 2.5 0 2.5
v 2.5 0 -2.5
v 2.5 4 -0.5
v 2.5 4 -2.5
v 2.5 5 2.5
v 2.5 5 -0.5
v 2.5 5 -2.5
v -2.5 0 2.5
v -2.5 2 2.5
v 0.5 2 2.5
v 0.5 5 2.5
v 2.5 0 2.5
v 2.5 5 2.5
v -2.5 0 -2.5
v -2.5 2 -2.5
v 0.5 2 -2.5
v 0.5 3 -2.5
v 0.5 5 -2.5
v 1.5 3 -2.5
v 1.5 4 -2.5
v 2.5 0 -2.5
v 2.5 4 -2.5
v 2.5 5 -2.5
v -2.5 0 2.5
v 2.5 0 2.5
v -2.5 0 -2.5
v 2.5 0 -2.5
v -2.5 2 2.5
v 0.5 2 2.5
v -2.5 2 -2.5
v 0.5 2 -2.5
v 0.5 5 2.5
v 2.5 5 2.5
v 0.5 5 -0.5
v 2.5 5 -0.5
v 0.5 5 -2.5
v 2.5 5 -2.5

# faces
f 3/1/1 2/1/1 1/1/1
f 4/1/1 2/1/1 3/1/1
f 7/1/1 6/1/1 5/1/1
f 8/1/1 6/1/1 7/1/1
f 9/1/1 7/1/1 5/1/1
f 10/2/1 8/2/1 7/2/1
f 10/1/1 7/1/1 9/1/1
f 11/2/1 8/2/1 10/2/1
f 12/1/2 13/1/2 14/1/2
f 14/1/2 13/1/2 15/1/2
f 12/1/2 14/1/2 16/1/2
f 14/2/2 15/2/2 17/2/2
f 16/1/2 14/1/2 17/1/2
f 17/2/2 15/2/2 18/2/2
f 21/1/3 20/1/3 19/1/3
f 23/1/3 21/1/3 19/1/3
f 23/1/3 22/1/3 21/1/3
f 24/1/3 22/1/3 23/1/3
f 25/1/4 26/1/4 27/1/4
f 27/1/4 28/1/4 30/1/4
f 28/2/4 29/2/4 30/2/4
f 30/2/4 29/2/4 31/2/4
f 25/1/4 27/1/4 32/1/4
f 27/1/4 30/1/4 32/1/4
f 30/1/4 31/1/4 32/1/4
f 31/2/4 29/2/4 33/2/4
f 32/1/4 31/1/4 33/1/4
f 33/2/4 29/2/4 34/2/4
f 37/1/5 36/1/5 35/1/5
f 38/1/5 36/1/5 37/1/5
f 39/1/6 40/1/6 41/1/6
f 41/1/6 40/1/6 42/1/6
f 43/1/6 44/1/6 45/1/6
f 45/1/6 44/1/6 46/1/6
f 45/2/6 46/2/6 47/2/6
f 47/2/6 46/2/6 48/2/6
