# MagicaVoxel @ Ephtracy

# group
g L_1

# material
mtllib L_1.mtl
usemtl palette

# normals
vn -1 0 0
vn 1 0 0
vn 0 0 1
vn 0 0 -1
vn 0 -1 0
vn 0 1 0

# texcoords
vt 0.857422 0.5
vt 0.958984 0.5

# verts
v -2.5 0 2.5
v -2.5 0 0.5
v -2.5 0 -2.5
v -2.5 2 2.5
v -2.5 2 0.5
v -2.5 2 -2.5
v 0.5 2 2.5
v 0.5 2 0.5
v 0.5 2 -2.5
v 0.5 5 2.5
v 0.5 5 0.5
v 0.5 5 -2.5
v 2.5 0 2.5
v 2.5 0 -2.5
v 2.5 4 2.5
v 2.5 4 0.5
v 2.5 5 2.5
v 2.5 5 0.5
v 2.5 5 -2.5
v -2.5 0 2.5
v -2.5 2 2.5
v -1.5 0 2.5
v -1.5 1 2.5
v 0.5 2 2.5
v 0.5 5 2.5
v 1.5 1 2.5
v 1.5 4 2.5
v 2.5 0 2.5
v 2.5 4 2.5
v 2.5 5 2.5
v -2.5 0 -2.5
v -2.5 2 -2.5
v 0.5 2 -2.5
v 0.5 5 -2.5
v 2.5 0 -2.5
v 2.5 5 -2.5
v -2.5 0 2.5
v -1.5 0 2.5
v 2.5 0 2.5
v -2.5 0 0.5
v -1.5 0 0.5
v -2.5 0 -2.5
v 2.5 0 -2.5
v -2.5 2 2.5
v 0.5 2 2.5
v -2.5 2 0.5
v 0.5 2 0.5
v -2.5 2 -2.5
v 0.5 2 -2.5
v 0.5 5 2.5
v 2.5 5 2.5
v 0.5 5 0.5
v 2.5 5 0.5
v 0.5 5 -2.5
v 2.5 5 -2.5

# faces
f 4/2/1 2/2/1 1/2/1
f 5/1/1 3/1/1 2/1/1
f 5/2/1 2/2/1 4/2/1
f 6/1/1 3/1/1 5/1/1
f 10/2/1 8/2/1 7/2/1
f 11/1/1 9/1/1 8/1/1
f 11/2/1 8/2/1 10/2/1
f 12/1/1 9/1/1 11/1/1
f 13/1/2 14/1/2 15/1/2
f 15/1/2 14/1/2 16/1/2
f 15/2/2 16/2/2 17/2/2
f 16/1/2 14/1/2 18/1/2
f 17/2/2 16/2/2 18/2/2
f 18/1/2 14/1/2 19/1/2
f 22/2/3 21/2/3 20/2/3
f 23/2/3 21/2/3 22/2/3
f 24/2/3 21/2/3 23/2/3
f 26/1/3 23/1/3 22/1/3
f 26/2/3 25/2/3 24/2/3
f 26/2/3 24/2/3 23/2/3
f 27/2/3 25/2/3 26/2/3
f 28/1/3 26/1/3 22/1/3
f 28/1/3 27/1/3 26/1/3
f 29/2/3 25/2/3 27/2/3
f 29/1/3 27/1/3 28/1/3
f 30/2/3 25/2/3 29/2/3
f 31/1/4 32/1/4 33/1/4
f 31/1/4 33/1/4 35/1/4
f 33/1/4 34/1/4 35/1/4
f 35/1/4 34/1/4 36/1/4
f 40/2/5 38/2/5 37/2/5
f 41/1/5 39/1/5 38/1/5
f 41/2/5 38/2/5 40/2/5
f 42/1/5 41/1/5 40/1/5
f 43/1/5 39/1/5 41/1/5
f 43/1/5 41/1/5 42/1/5
f 44/2/6 45/2/6 46/2/6
f 46/2/6 45/2/6 47/2/6
f 46/1/6 47/1/6 48/1/6
f 48/1/6 47/1/6 49/1/6
f 50/2/6 51/2/6 52/2/6
f 52/2/6 51/2/6 53/2/6
f 52/1/6 53/1/6 54/1/6
f 54/1/6 53/1/6 55/1/6
