# MagicaVoxel @ Ephtracy

# group
g L_4

# material
mtllib L_4.mtl
usemtl palette

# normals
vn -1 0 0
vn 1 0 0
vn 0 0 1
vn 0 0 -1
vn 0 -1 0
vn 0 1 0

# texcoords
vt 0.857422 0.5
vt 0.958984 0.5

# verts
v -2.5 0 2.5
v -2.5 0 -2.5
v -2.5 2 2.5
v -2.5 2 -2.5
v 0.5 2 2.5
v 0.5 2 -2.5
v 0.5 3 2.5
v 0.5 3 -2.5
v 0.5 5 2.5
v 0.5 5 -2.5
v 2.5 0 2.5
v 2.5 0 -2.5
v 2.5 4 2.5
v 2.5 4 -2.5
v 2.5 5 2.5
v 2.5 5 -2.5
v -2.5 0 2.5
v -2.5 2 2.5
v 0.5 2 2.5
v 0.5 3 2.5
v 0.5 5 2.5
v 1.5 3 2.5
v 1.5 4 2.5
v 2.5 0 2.5
v 2.5 4 2.5
v 2.5 5 2.5
v -2.5 0 -2.5
v -2.5 2 -2.5
v 0.5 2 -2.5
v 0.5 3 -2.5
v 0.5 5 -2.5
v 1.5 3 -2.5
v 1.5 4 -2.5
v 2.5 0 -2.5
v 2.5 4 -2.5
v 2.5 5 -2.5
v -2.5 0 2.5
v 2.5 0 2.5
v -2.5 0 -2.5
v 2.5 0 -2.5
v -2.5 2 2.5
v 0.5 2 2.5
v -2.5 2 -2.5
v 0.5 2 -2.5
v 0.5 5 2.5
v 2.5 5 2.5
v 0.5 5 -2.5
v 2.5 5 -2.5

# faces
f 3/1/1 2/1/1 1/1/1
f 4/1/1 2/1/1 3/1/1
f 7/1/1 6/1/1 5/1/1
f 8/1/1 6/1/1 7/1/1
f 9/2/1 8/2/1 7/2/1
f 10/2/1 8/2/1 9/2/1
f 11/1/2 12/1/2 13/1/2
f 13/1/2 12/1/2 14/1/2
f 13/2/2 14/2/2 15/2/2
f 15/2/2 14/2/2 16/2/2
f 19/1/3 18/1/3 17/1/3
f 22/1/3 20/1/3 19/1/3
f 22/2/3 21/2/3 20/2/3
f 23/2/3 21/2/3 22/2/3
f 24/1/3 19/1/3 17/1/3
f 24/1/3 22/1/3 19/1/3
f 24/1/3 23/1/3 22/1/3
f 25/2/3 21/2/3 23/2/3
f 25/1/3 23/1/3 24/1/3
f 26/2/3 21/2/3 25/2/3
f 27/1/4 28/1/4 29/1/4
f 29/1/4 30/1/4 32/1/4
f 30/2/4 31/2/4 32/2/4
f 32/2/4 31/2/4 33/2/4
f 27/1/4 29/1/4 34/1/4
f 29/1/4 32/1/4 34/1/4
f 32/1/4 33/1/4 34/1/4
f 33/2/4 31/2/4 35/2/4
f 34/1/4 33/1/4 35/1/4
f 35/2/4 31/2/4 36/2/4
f 39/1/5 38/1/5 37/1/5
f 40/1/5 38/1/5 39/1/5
f 41/1/6 42/1/6 43/1/6
f 43/1/6 42/1/6 44/1/6
f 45/2/6 46/2/6 47/2/6
f 47/2/6 46/2/6 48/2/6
