# MagicaVoxel @ Ephtracy

# group
g 04

# material
mtllib 04.mtl
usemtl palette

# normals
vn -1 0 0
vn 1 0 0
vn 0 0 1
vn 0 0 -1
vn 0 -1 0
vn 0 1 0

# texcoords
vt 0.0683594 0.5
vt 0.857422 0.5

# verts
v -2.5 0 2.5
v -2.5 0 0.5
v -2.5 0 -0.5
v -2.5 0 -2.5
v -2.5 2 2.5
v -2.5 2 0.5
v -2.5 3 2.5
v -2.5 3 -0.5
v -2.5 5 2.5
v -2.5 5 -2.5
v 2.5 0 2.5
v 2.5 0 -2.5
v 2.5 5 2.5
v 2.5 5 -2.5
v -2.5 0 2.5
v -2.5 2 2.5
v -2.5 3 2.5
v -2.5 5 2.5
v -1.5 2 2.5
v -1.5 3 2.5
v 2.5 0 2.5
v 2.5 5 2.5
v -2.5 0 -2.5
v -2.5 5 -2.5
v 2.5 0 -2.5
v 2.5 5 -2.5
v -2.5 0 2.5
v 2.5 0 2.5
v -2.5 0 0.5
v -1.5 0 0.5
v -2.5 0 -0.5
v -1.5 0 -0.5
v -2.5 0 -2.5
v 2.5 0 -2.5
v -2.5 5 2.5
v 2.5 5 2.5
v -2.5 5 -2.5
v 2.5 5 -2.5

# faces
f 5/2/1 2/2/1 1/2/1
f 6/1/1 3/1/1 2/1/1
f 6/2/1 2/2/1 5/2/1
f 7/1/1 6/1/1 5/1/1
f 8/2/1 4/2/1 3/2/1
f 8/1/1 6/1/1 7/1/1
f 8/1/1 3/1/1 6/1/1
f 9/2/1 8/2/1 7/2/1
f 10/2/1 4/2/1 8/2/1
f 10/2/1 8/2/1 9/2/1
f 11/2/2 12/2/2 13/2/2
f 13/2/2 12/2/2 14/2/2
f 19/2/3 16/2/3 15/2/3
f 19/1/3 17/1/3 16/1/3
f 20/2/3 18/2/3 17/2/3
f 20/1/3 17/1/3 19/1/3
f 21/2/3 19/2/3 15/2/3
f 21/2/3 20/2/3 19/2/3
f 22/2/3 18/2/3 20/2/3
f 22/2/3 20/2/3 21/2/3
f 23/2/4 24/2/4 25/2/4
f 25/2/4 24/2/4 26/2/4
f 29/2/5 28/2/5 27/2/5
f 30/2/5 28/2/5 29/2/5
f 31/1/5 30/1/5 29/1/5
f 32/2/5 28/2/5 30/2/5
f 32/1/5 30/1/5 31/1/5
f 33/2/5 32/2/5 31/2/5
f 34/2/5 28/2/5 32/2/5
f 34/2/5 32/2/5 33/2/5
f 35/2/6 36/2/6 37/2/6
f 37/2/6 36/2/6 38/2/6
