# MagicaVoxel @ Ephtracy

# group
g n07

# material
mtllib n07.mtl
usemtl palette

# normals
vn -1 0 0
vn 1 0 0
vn 0 0 1
vn 0 0 -1
vn 0 -1 0
vn 0 1 0

# texcoords
vt 0.0683594 0.5
vt 0.857422 0.5

# verts
v -2.5 0 2.5
v -2.5 0 0.5
v -2.5 0 -2.5
v -2.5 1 1.5
v -2.5 1 0.5
v -2.5 2 2.5
v -2.5 2 1.5
v -2.5 2 0.5
v -2.5 2 -0.5
v -2.5 3 1.5
v -2.5 3 0.5
v -2.5 3 -0.5
v -2.5 4 2.5
v -2.5 4 1.5
v -2.5 4 -1.5
v -2.5 4 -2.5
v -2.5 5 2.5
v -2.5 5 0.5
v -2.5 5 -1.5
v -2.5 5 -2.5
v 2.5 0 2.5
v 2.5 0 -2.5
v 2.5 5 2.5
v 2.5 5 -2.5
v -2.5 0 2.5
v -2.5 2 2.5
v -2.5 4 2.5
v -2.5 5 2.5
v -1.5 2 2.5
v -1.5 4 2.5
v 2.5 0 2.5
v 2.5 5 2.5
v -2.5 0 -2.5
v -2.5 4 -2.5
v -2.5 5 -2.5
v -1.5 0 -2.5
v -1.5 4 -2.5
v 2.5 0 -2.5
v 2.5 5 -2.5
v -2.5 0 2.5
v 2.5 0 2.5
v -2.5 0 0.5
v -1.5 0 0.5
v -2.5 0 -2.5
v -1.5 0 -2.5
v 2.5 0 -2.5
v -2.5 5 2.5
v 2.5 5 2.5
v -2.5 5 0.5
v -1.5 5 0.5
v -2.5 5 -1.5
v -1.5 5 -1.5
v -2.5 5 -2.5
v 2.5 5 -2.5

# faces
f 4/2/1 2/2/1 1/2/1
f 5/1/1 3/1/1 2/1/1
f 5/2/1 2/2/1 4/2/1
f 6/2/1 4/2/1 1/2/1
f 7/1/1 5/1/1 4/1/1
f 7/2/1 4/2/1 6/2/1
f 8/1/1 3/1/1 5/1/1
f 8/1/1 5/1/1 7/1/1
f 9/1/1 3/1/1 8/1/1
f 10/1/1 7/1/1 6/1/1
f 10/1/1 8/1/1 7/1/1
f 11/2/1 9/2/1 8/2/1
f 11/1/1 8/1/1 10/1/1
f 12/1/1 3/1/1 9/1/1
f 12/2/1 9/2/1 11/2/1
f 13/1/1 10/1/1 6/1/1
f 14/2/1 11/2/1 10/2/1
f 14/1/1 10/1/1 13/1/1
f 15/1/1 3/1/1 12/1/1
f 15/1/1 12/1/1 11/1/1
f 16/1/1 3/1/1 15/1/1
f 17/2/1 14/2/1 13/2/1
f 18/2/1 11/2/1 14/2/1
f 18/2/1 14/2/1 17/2/1
f 18/1/1 15/1/1 11/1/1
f 19/2/1 16/2/1 15/2/1
f 19/1/1 15/1/1 18/1/1
f 20/2/1 16/2/1 19/2/1
f 21/2/2 22/2/2 23/2/2
f 23/2/2 22/2/2 24/2/2
f 29/2/3 26/2/3 25/2/3
f 29/1/3 27/1/3 26/1/3
f 30/2/3 28/2/3 27/2/3
f 30/1/3 27/1/3 29/1/3
f 31/2/3 29/2/3 25/2/3
f 31/2/3 30/2/3 29/2/3
f 32/2/3 28/2/3 30/2/3
f 32/2/3 30/2/3 31/2/3
f 33/1/4 34/1/4 36/1/4
f 34/2/4 35/2/4 37/2/4
f 36/1/4 34/1/4 37/1/4
f 36/2/4 37/2/4 38/2/4
f 37/2/4 35/2/4 39/2/4
f 38/2/4 37/2/4 39/2/4
f 42/2/5 41/2/5 40/2/5
f 43/2/5 41/2/5 42/2/5
f 44/1/5 43/1/5 42/1/5
f 45/2/5 41/2/5 43/2/5
f 45/1/5 43/1/5 44/1/5
f 46/2/5 41/2/5 45/2/5
f 47/2/6 48/2/6 49/2/6
f 49/2/6 48/2/6 50/2/6
f 49/1/6 50/1/6 51/1/6
f 50/2/6 48/2/6 52/2/6
f 51/1/6 50/1/6 52/1/6
f 51/2/6 52/2/6 53/2/6
f 52/2/6 48/2/6 54/2/6
f 53/2/6 52/2/6 54/2/6
