# MagicaVoxel @ Ephtracy

# group
g n93

# material
mtllib n93.mtl
usemtl palette

# normals
vn -1 0 0
vn 1 0 0
vn 0 0 1
vn 0 0 -1
vn 0 -1 0
vn 0 1 0

# texcoords
vt 0.0683594 0.5
vt 0.857422 0.5

# verts
v -2.5 0 2.5
v -2.5 0 1.5
v -2.5 0 -2.5
v -2.5 1 -1.5
v -2.5 1 -2.5
v -2.5 2 1.5
v -2.5 2 0.5
v -2.5 2 -0.5
v -2.5 2 -1.5
v -2.5 3 0.5
v -2.5 3 -0.5
v -2.5 5 2.5
v -2.5 5 -2.5
v 2.5 0 2.5
v 2.5 0 -2.5
v 2.5 5 2.5
v 2.5 5 -2.5
v -2.5 0 2.5
v -2.5 5 2.5
v 2.5 0 2.5
v 2.5 5 2.5
v -2.5 0 -2.5
v -2.5 1 -2.5
v -2.5 5 -2.5
v -1.5 0 -2.5
v -1.5 1 -2.5
v 2.5 0 -2.5
v 2.5 5 -2.5
v -2.5 0 2.5
v 2.5 0 2.5
v -2.5 0 1.5
v -1.5 0 1.5
v -2.5 0 -2.5
v -1.5 0 -2.5
v 2.5 0 -2.5
v -2.5 5 2.5
v 2.5 5 2.5
v -2.5 5 -2.5
v 2.5 5 -2.5

# faces
f 4/1/1 3/1/1 2/1/1
f 5/1/1 3/1/1 4/1/1
f 6/2/1 2/2/1 1/2/1
f 6/1/1 4/1/1 2/1/1
f 7/1/1 4/1/1 6/1/1
f 8/1/1 4/1/1 7/1/1
f 9/2/1 5/2/1 4/2/1
f 9/1/1 4/1/1 8/1/1
f 10/1/1 8/1/1 7/1/1
f 10/2/1 7/2/1 6/2/1
f 11/2/1 9/2/1 8/2/1
f 11/1/1 8/1/1 10/1/1
f 12/2/1 6/2/1 1/2/1
f 12/2/1 10/2/1 6/2/1
f 12/2/1 11/2/1 10/2/1
f 13/2/1 5/2/1 9/2/1
f 13/2/1 11/2/1 12/2/1
f 13/2/1 9/2/1 11/2/1
f 14/2/2 15/2/2 16/2/2
f 16/2/2 15/2/2 17/2/2
f 20/2/3 19/2/3 18/2/3
f 21/2/3 19/2/3 20/2/3
f 22/1/4 23/1/4 25/1/4
f 23/2/4 24/2/4 26/2/4
f 25/1/4 23/1/4 26/1/4
f 25/2/4 26/2/4 27/2/4
f 26/2/4 24/2/4 28/2/4
f 27/2/4 26/2/4 28/2/4
f 31/2/5 30/2/5 29/2/5
f 32/2/5 30/2/5 31/2/5
f 33/1/5 32/1/5 31/1/5
f 34/2/5 30/2/5 32/2/5
f 34/1/5 32/1/5 33/1/5
f 35/2/5 30/2/5 34/2/5
f 36/2/6 37/2/6 38/2/6
f 38/2/6 37/2/6 39/2/6
